<?xml version="1.0" standalone="no"?>
<!DOCTYPE svg PUBLIC "-//W3C//DTD SVG 20010904//EN"
 "http://www.w3.org/TR/2001/REC-SVG-20010904/DTD/svg10.dtd">
<svg version="1.0" xmlns="http://www.w3.org/2000/svg"
 width="63.000000pt" height="64.000000pt" viewBox="0 0 63.000000 64.000000"
 preserveAspectRatio="xMidYMid meet">
<metadata>
Created by potrace 1.16, written by Peter Selinger 2001-2019
</metadata>
<g transform="translate(0.000000,64.000000) scale(0.100000,-0.100000)"
fill="#000000" stroke="none">
<path d="M272 508 c3 -21 10 -23 76 -28 l72 -5 -130 -130 c-90 -90 -130 -137
-130 -152 0 -46 37 -21 170 112 l135 135 5 -77 c4 -60 8 -78 20 -78 12 0 15
22 18 123 l3 122 -121 0 c-120 0 -121 0 -118 -22z"/>
<path d="M7 443 c-4 -3 -7 -105 -7 -225 l0 -218 219 0 c250 0 231 -8 231 100
0 81 -6 100 -31 100 -17 0 -19 -8 -19 -75 l0 -75 -180 0 -180 0 0 175 0 175
69 0 c72 0 92 10 71 35 -9 11 -34 15 -90 15 -42 0 -80 -3 -83 -7z"/>
</g>
</svg>
